<svg xmlns="http://www.w3.org/2000/svg" width="16" height="16" viewBox="0 0 16 16"><path d="M3962.921,3150.657a.668.668,0,0,1,.677-.657h.678a.667.667,0,0,1,.677.658v3.65a.642.642,0,0,1-.2.465.676.676,0,0,1-.479.2h-3.763a.667.667,0,0,1-.678-.657v-.657a.668.668,0,0,1,.678-.657h.672a6.238,6.238,0,0,0-7.363.933,5.792,5.792,0,0,0,0,8.366,6.233,6.233,0,0,0,8.625,0,5.827,5.827,0,0,0,1.54-2.525l2.016.326a7.8,7.8,0,0,1-2.117,3.594,8.312,8.312,0,0,1-11.5,0,7.722,7.722,0,0,1,0-11.156,8.315,8.315,0,0,1,10.539-.787" transform="translate(-3950 -3150)" fill="#f0f0f5"/></svg>