<svg height="16" viewBox="0 0 12 16" width="12" xmlns="http://www.w3.org/2000/svg"><g fill="#f0f0f5" transform="translate(-2581.25 -3150)"><path d="m2583.333 3166.5.667 10.052a.666.666 0 0 0 .667.667h8a.666.666 0 0 0 .667-.667l.666-10.052zm2.875 9.385-.449-8.051h.75l.449 8.051zm2.833 0h-.75v-8.051h.75zm2.083 0h-.749l.449-8.051h.75z" transform="translate(-1.416 -11.223)"/><path d="m2592.583 3152.083h-2.667v-1.417a.666.666 0 0 0 -.667-.667h-4a.666.666 0 0 0 -.667.667v1.417h-2.667a.666.666 0 0 0 -.667.667v1.333h12v-1.333a.666.666 0 0 0 -.665-.667zm-4 0h-2.667v-.75h2.667z"/></g></svg>